<svg xmlns="http://www.w3.org/2000/svg" xmlns:svg="http://www.w3.org/2000/svg" xmlns:xlink="http://www.w3.org/1999/xlink" id="svg2" width="50" height="50" version="1.1"><defs id="defs4"><linearGradient id="linearGradient5215"><stop style="stop-color:#265bee;stop-opacity:1" id="stop5217" offset="0"/><stop style="stop-color:#00212c;stop-opacity:0" id="stop5219" offset="1"/></linearGradient><linearGradient id="linearGradient3791"><stop style="stop-color:#030303;stop-opacity:1" id="stop3793" offset="0"/><stop style="stop-color:#00212c;stop-opacity:0" id="stop3795" offset="1"/></linearGradient><linearGradient id="linearGradient3783"><stop style="stop-color:#2052dd;stop-opacity:1" id="stop3785" offset="0"/><stop style="stop-color:#59d6ff;stop-opacity:0" id="stop3787" offset="1"/></linearGradient><linearGradient id="linearGradient3773"><stop style="stop-color:#59d6ff;stop-opacity:1" id="stop3775" offset="0"/><stop style="stop-color:#3c4dff;stop-opacity:.86956519" id="stop3777" offset="1"/></linearGradient><linearGradient id="linearGradient3789" x1="15.026" x2="16.983" y1="1036.8" y2="1038.441" gradientUnits="userSpaceOnUse" xlink:href="#linearGradient3783"/><linearGradient id="linearGradient3797" x1="9.8" x2="25.059" y1="11.679" y2="24.841" gradientTransform="matrix(2.4956552,0,0,2.5364556,-12.537446,989.24934)" gradientUnits="userSpaceOnUse" xlink:href="#linearGradient3791"/><linearGradient id="linearGradient5208" x1="15.026" x2="16.983" y1="1036.8" y2="1038.441" gradientTransform="matrix(0.52066112,0,0,1,6.0223049,0)" gradientUnits="userSpaceOnUse" xlink:href="#linearGradient3783"/></defs><metadata id="metadata7"/><g id="layer1" transform="translate(0,-1002.3622)"><path style="opacity:.86000001;fill:#fff;fill-opacity:1;fill-rule:nonzero;stroke:#00f;stroke-width:.78775376;stroke-linecap:round;stroke-linejoin:round;stroke-miterlimit:4;stroke-opacity:1;stroke-dasharray:none" id="path2985" transform="matrix(1.3931392,0,0,1.15671,-5.8639207,1020.0339)"/><path style="opacity:.86000001;fill:url(#linearGradient3797);fill-opacity:1;fill-rule:nonzero;stroke:#115cf0;stroke-width:2.51597404;stroke-opacity:1" id="path3781" d="m 21.460761,1050.9266 c -5.348446,-0.9092 -9.755972,-3.2087 -13.4485661,-7.016 -3.4111119,-3.5178 -5.5193205,-7.7352 -6.4222384,-12.8483 -0.2728945,-1.5451 -0.3080889,-5.505 -0.062707,-7.0547 1.6969891,-10.72 9.7098565,-18.718 20.2980895,-20.2609 1.724416,-0.2509 6.320712,-0.1081 7.907429,0.2474 8.233154,1.841 14.793598,7.6112 17.571794,15.4555 0.894155,2.5246 1.329124,5.0932 1.332896,7.8709 0.01117,8.2502 -4.254748,15.9454 -11.262932,20.3165 -2.201074,1.3728 -4.913713,2.4619 -7.57889,3.0427 -1.997541,0.4354 -6.449429,0.5676 -8.334875,0.2469 z"/></g><g id="layer2" transform="translate(0,20)"><path style="fill:#dcdbe8;fill-opacity:1;stroke:none" id="path5211" d="m 18.5,-10.909091 0,31.818182 L 43.5,5 z"/></g></svg>