<svg xmlns="http://www.w3.org/2000/svg" xmlns:svg="http://www.w3.org/2000/svg" xmlns:xlink="http://www.w3.org/1999/xlink" id="svg2" width="30" height="30" version="1.1"><defs id="defs4"><linearGradient id="linearGradient5215"><stop style="stop-color:#265bee;stop-opacity:1" id="stop5217" offset="0"/><stop style="stop-color:#00212c;stop-opacity:0" id="stop5219" offset="1"/></linearGradient><linearGradient id="linearGradient3791"><stop style="stop-color:#030303;stop-opacity:1" id="stop3793" offset="0"/><stop style="stop-color:#00212c;stop-opacity:0" id="stop3795" offset="1"/></linearGradient><linearGradient id="linearGradient3783"><stop style="stop-color:#2052dd;stop-opacity:1" id="stop3785" offset="0"/><stop style="stop-color:#59d6ff;stop-opacity:0" id="stop3787" offset="1"/></linearGradient><linearGradient id="linearGradient3773"><stop style="stop-color:#59d6ff;stop-opacity:1" id="stop3775" offset="0"/><stop style="stop-color:#3c4dff;stop-opacity:.86956519" id="stop3777" offset="1"/></linearGradient><linearGradient id="linearGradient3789" x1="15.026" x2="16.983" y1="1036.8" y2="1038.441" gradientUnits="userSpaceOnUse" xlink:href="#linearGradient3783"/><linearGradient id="linearGradient3797" x1="9.8" x2="25.059" y1="11.679" y2="24.841" gradientTransform="matrix(1.1672193,0,0,1.1723822,-2.6115343,1019.8541)" gradientUnits="userSpaceOnUse" xlink:href="#linearGradient3791"/><linearGradient id="linearGradient5208" x1="15.026" x2="16.983" y1="1036.8" y2="1038.441" gradientTransform="matrix(0.52066112,0,0,1,6.0223049,0)" gradientUnits="userSpaceOnUse" xlink:href="#linearGradient3783"/></defs><metadata id="metadata7"/><g id="layer1" transform="translate(0,-1022.3622)"><path style="opacity:.86000001000000004;fill:#fff;fill-opacity:1;fill-rule:nonzero;stroke:#00f;stroke-width:.78775379;stroke-linecap:round;stroke-linejoin:round;stroke-miterlimit:4;stroke-opacity:1;stroke-dasharray:none" id="path2985" transform="matrix(1.3931392,0,0,1.15671,-5.8639207,1020.0339)"/><path style="opacity:.86000001000000004;fill:url(#linearGradient3797);fill-opacity:1;fill-rule:nonzero;stroke:#112ff0;stroke-width:1.16979837000000009;stroke-opacity:1" id="path3781" d="m 13.289445,1048.3622 c -2.501472,-0.4203 -4.5628738,-1.4831 -6.2899019,-3.2429 -1.5953788,-1.626 -2.581389,-3.5753 -3.0036842,-5.9386 -0.1276329,-0.7141 -0.1440934,-2.5444 -0.029328,-3.2607 0.7936827,-4.9549 4.5413051,-8.6519 9.4934271,-9.3649 0.806511,-0.116 2.956199,-0.05 3.698308,0.1144 3.850651,0.8508 6.918973,3.5179 8.218338,7.1437 0.418196,1.1669 0.621632,2.3541 0.623396,3.638 0.0052,3.8132 -1.989947,7.3702 -5.26768,9.3906 -1.029442,0.6345 -2.298145,1.1379 -3.54465,1.4063 -0.934251,0.2012 -3.016402,0.2623 -3.898225,0.1141 z"/></g><g id="layer2"><path style="fill:#2009f4;fill-opacity:1;stroke:none" id="path5211" d="m 20,10 0,10 -6,-5 z"/><path style="fill:#2009f4;stroke:none;stroke-width:1px;stroke-linecap:butt;stroke-linejoin:miter;stroke-opacity:1;fill-opacity:1;opacity:1" id="path3002" d="m 14,10 -3,0 0,10 3,0 z"/></g></svg>