<svg xmlns="http://www.w3.org/2000/svg" xmlns:svg="http://www.w3.org/2000/svg" xmlns:xlink="http://www.w3.org/1999/xlink" id="svg2" width="30" height="30" version="1.1"><defs id="defs4"><linearGradient id="linearGradient5215"><stop style="stop-color:#265bee;stop-opacity:1" id="stop5217" offset="0"/><stop style="stop-color:#00212c;stop-opacity:0" id="stop5219" offset="1"/></linearGradient><linearGradient id="linearGradient3791"><stop style="stop-color:#030303;stop-opacity:1" id="stop3793" offset="0"/><stop style="stop-color:#00212c;stop-opacity:0" id="stop3795" offset="1"/></linearGradient><linearGradient id="linearGradient3783"><stop style="stop-color:#2052dd;stop-opacity:1" id="stop3785" offset="0"/><stop style="stop-color:#59d6ff;stop-opacity:0" id="stop3787" offset="1"/></linearGradient><linearGradient id="linearGradient3773"><stop style="stop-color:#59d6ff;stop-opacity:1" id="stop3775" offset="0"/><stop style="stop-color:#3c4dff;stop-opacity:.86956519" id="stop3777" offset="1"/></linearGradient><linearGradient id="linearGradient3789" x1="15.026" x2="16.983" y1="1036.8" y2="1038.441" gradientUnits="userSpaceOnUse" xlink:href="#linearGradient3783"/><linearGradient id="linearGradient3797" x1="9.8" x2="25.059" y1="11.679" y2="24.841" gradientTransform="matrix(1.5005261,0,0,1.5250576,-7.6010576,1014.478)" gradientUnits="userSpaceOnUse" xlink:href="#linearGradient3791"/><linearGradient id="linearGradient5208" x1="15.026" x2="16.983" y1="1036.8" y2="1038.441" gradientTransform="matrix(0.52066112,0,0,1,6.0223049,0)" gradientUnits="userSpaceOnUse" xlink:href="#linearGradient3783"/></defs><metadata id="metadata7"/><g id="layer1" transform="translate(0,-1022.3622)"><path style="opacity:.86000001000000004;fill:#fff;fill-opacity:1;fill-rule:nonzero;stroke:#00f;stroke-width:.78775379;stroke-linecap:round;stroke-linejoin:round;stroke-miterlimit:4;stroke-opacity:1;stroke-dasharray:none" id="path2985" transform="matrix(1.3931392,0,0,1.15671,-5.8639207,1020.0339)"/><path style="opacity:.86000001000000004;fill:url(#linearGradient3797);fill-opacity:1;fill-rule:nonzero;stroke:#115cf0;stroke-width:1.51274288000000001;stroke-opacity:1" id="path3781" d="m 12.840547,1051.5618 c -3.2157823,-0.5466 -5.865831,-1.9292 -8.0860229,-4.2184 -2.0509494,-2.1151 -3.3185211,-4.6508 -3.8614053,-7.7251 -0.1640793,-0.929 -0.18524017,-3.3099 -0.0377026,-4.2417 1.0203238,-6.4454 5.8381036,-11.2543 12.2043348,-12.1819 1.036815,-0.1509 3.800362,-0.065 4.754384,0.1487 4.950228,1.1069 8.89473,4.5763 10.565136,9.2927 0.537615,1.5179 0.799143,3.0623 0.801411,4.7324 0.0067,4.9605 -2.55819,9.5873 -6.771899,12.2154 -1.323407,0.8255 -2.954396,1.4803 -4.556848,1.8295 -1.201032,0.2618 -3.877754,0.3412 -5.011388,0.1484 z"/></g><g id="layer2"><path style="fill:#dcdbe8;fill-opacity:1;stroke:none;stroke-width:1.45100000000000007;stroke-linecap:butt;stroke-linejoin:miter;stroke-opacity:1;stroke-miterlimit:4;stroke-dasharray:none" id="path5211" d="m 11,8 0,14 11,-7 z"/></g></svg>