<svg xmlns="http://www.w3.org/2000/svg" xmlns:xlink="http://www.w3.org/1999/xlink" id="svg1" width="128pt" height="128pt"><defs id="defs22"><linearGradient id="linearGradient168"><stop style="stop-color:#cdffff;stop-opacity:1" id="stop169" offset="0"/><stop style="stop-color:#0c5d7d;stop-opacity:.905882" id="stop170" offset="1"/></linearGradient><linearGradient id="linearGradient90"><stop style="stop-color:#cdffff;stop-opacity:1" id="stop91" offset="0"/><stop style="stop-color:#006b97;stop-opacity:.905882" id="stop92" offset="1"/></linearGradient><linearGradient id="linearGradient67"><stop style="stop-color:#d7ffff;stop-opacity:.898039" id="stop70" offset="0"/><stop style="stop-color:#2ea6b9;stop-opacity:.952941" id="stop69" offset="1"/></linearGradient><linearGradient id="linearGradient57"><stop style="stop-color:#fff;stop-opacity:1" id="stop59" offset="0"/><stop style="stop-color:#797979;stop-opacity:1" id="stop58" offset="1"/></linearGradient><defs id="defs4"><radialGradient id="1" cx="869.603" cy="1973.58" r="2106.65" fx="869.603" fy="1973.58" gradientUnits="userSpaceOnUse" xlink:href="#linearGradient67"/></defs><defs id="defs11"><linearGradient id="2" x1="255.848" x2="375.686" y1="119.147" y2="34.101" gradientUnits="userSpaceOnUse"><stop style="stop-color:#fff" id="stop13" offset="0"/><stop style="stop-color:#000" id="stop14" offset="1"/></linearGradient></defs><defs id="defs16"><linearGradient id="3" x1="275.053" x2="356.481" y1="109.384" y2="30.864" gradientUnits="userSpaceOnUse" xlink:href="#linearGradient57"/></defs><radialGradient id="radialGradient88" cx="0" cy="0" r=".773" fx="0" fy="0" gradientTransform="matrix(0.945877,0,0,1.05722,0.264368,0.249996)" gradientUnits="objectBoundingBox" spreadMethod="pad" xlink:href="#linearGradient168"/><linearGradient id="linearGradient89" x1="2.696" x2="3.851" y1="1.147" y2=".623" gradientTransform="translate(-2.65767,-0.201241)" gradientUnits="objectBoundingBox" spreadMethod="pad" xlink:href="#linearGradient67"/></defs><path style="font-size:12;fill:url(#radialGradient88);stroke:#0c5d7d;stroke-opacity:.99;stroke-width:4.03585" id="path9" d="M 35.399 39.1321L 277.219 39.1321L 377.219 137.984L 377.219 548.198L 35.399 548.198L 35.399 39.1321z" transform="matrix(0.278752,0,0,0.284891,29.8322,1.63322)"/><path style="font-size:12;fill:#fff;fill-opacity:.699301;stroke:#2ea6b9;stroke-width:8.96855;stroke-opacity:.82" id="path10" d="M 23.9471 20.1241L 265.767 20.1241L 365.767 120.124L 365.767 535.103L 23.9471 535.103L 23.9471 20.1241z" transform="matrix(0.278752,0,0,0.278752,29.8322,3.74844)"/><path style="font-size:12" id="path15" d="M 276.767 133.124L 365.767 120.124L 265.767 20.1241" transform="matrix(0.278752,0,0,0.278752,29.8322,3.74844)"/><path style="font-size:12;fill:url(#linearGradient89);stroke:#2ea6b9;stroke-width:6.72641;stroke-opacity:.91" id="path20" d="M 265.767 120.124L 365.767 120.124L 265.767 20.1241L 265.767 120.124" transform="matrix(0.278752,0,0,0.278752,29.8322,3.74844)"/></svg>