<svg xmlns="http://www.w3.org/2000/svg" xmlns:svg="http://www.w3.org/2000/svg" xmlns:xlink="http://www.w3.org/1999/xlink" id="svg1" width="128pt" height="128pt" version="1.0"><defs id="defs22"><linearGradient id="linearGradient732"><stop style="stop-color:#fbddc7;stop-opacity:.99215698" id="stop733" offset="0"/><stop style="stop-color:#efa81a;stop-opacity:.952941" id="stop734" offset="1"/></linearGradient><linearGradient id="linearGradient458"><stop style="stop-color:#cdffff;stop-opacity:.69019598" id="stop459" offset="0"/><stop style="stop-color:#0c5c7d;stop-opacity:.78039199" id="stop460" offset="1"/></linearGradient><linearGradient id="linearGradient320"><stop style="stop-color:#5f9eb2;stop-opacity:.88235301" id="stop321" offset="0"/><stop style="stop-color:#0c5c7d;stop-opacity:.870588" id="stop322" offset="1"/></linearGradient><linearGradient id="linearGradient314"><stop style="stop-color:#0c5c7d;stop-opacity:1" id="stop315" offset="0"/><stop style="stop-color:#0c5c7d;stop-opacity:1" id="stop316" offset="1"/></linearGradient><linearGradient id="linearGradient310"><stop style="stop-color:#0c5c7d;stop-opacity:.78039199" id="stop311" offset="0"/><stop style="stop-color:#cdffff;stop-opacity:.69019598" id="stop312" offset="1"/></linearGradient><linearGradient id="linearGradient307"><stop style="stop-color:#cdffff;stop-opacity:1" id="stop308" offset="0"/><stop style="stop-color:#0c5c7d;stop-opacity:1" id="stop309" offset="1"/></linearGradient><linearGradient id="linearGradient291"><stop style="stop-color:#0c5c7d;stop-opacity:.615686" id="stop292" offset="0"/><stop style="stop-color:#004468;stop-opacity:.917647" id="stop293" offset="1"/></linearGradient><linearGradient id="linearGradient235"><stop style="stop-color:#eaffff;stop-opacity:1" id="stop236" offset="0"/><stop style="stop-color:#97e2ff;stop-opacity:.99215698" id="stop237" offset="1"/></linearGradient><linearGradient id="linearGradient232"><stop style="stop-color:#fcfcfc;stop-opacity:1" id="stop233" offset="0"/><stop style="stop-color:#afb2b5;stop-opacity:1" id="stop234" offset="1"/></linearGradient><linearGradient id="linearGradient216"><stop style="stop-color:#f5f5f5;stop-opacity:1" id="stop217" offset="0"/><stop style="stop-color:#949494;stop-opacity:1" id="stop218" offset="1"/></linearGradient><linearGradient id="linearGradient211"><stop style="stop-color:#d7ffff;stop-opacity:.45882401" id="stop212" offset="0"/><stop style="stop-color:#2ea6b9;stop-opacity:.82352901" id="stop213" offset="1"/></linearGradient><linearGradient id="linearGradient168"><stop style="stop-color:#cdffff;stop-opacity:.87450999" id="stop169" offset="0"/><stop style="stop-color:#0c5c7d;stop-opacity:.86666697" id="stop170" offset="1"/></linearGradient><linearGradient id="linearGradient90"><stop style="stop-color:#cdffff;stop-opacity:1" id="stop91" offset="0"/><stop style="stop-color:#006b97;stop-opacity:.905882" id="stop92" offset="1"/></linearGradient><linearGradient id="linearGradient67"><stop style="stop-color:#d7ffff;stop-opacity:.89803898" id="stop70" offset="0"/><stop style="stop-color:#2ea6b9;stop-opacity:.952941" id="stop69" offset="1"/></linearGradient><linearGradient id="linearGradient57"><stop style="stop-color:#fff;stop-opacity:1" id="stop59" offset="0"/><stop style="stop-color:#797979;stop-opacity:1" id="stop58" offset="1"/></linearGradient><defs id="defs4"><radialGradient id="1" cx="869.603" cy="1973.58" r="2106.65" fx="869.603" fy="1973.58" gradientUnits="userSpaceOnUse" xlink:href="#linearGradient67"/></defs><defs id="defs11"><linearGradient id="2" x1="255.848" x2="375.686" y1="119.147" y2="34.101" gradientUnits="userSpaceOnUse"><stop style="stop-color:#fff;stop-opacity:1" id="stop13" offset="0"/><stop style="stop-color:#000;stop-opacity:1" id="stop14" offset="1"/></linearGradient></defs><defs id="defs16"><linearGradient id="3" x1="275.053" x2="356.481" y1="109.384" y2="30.864" gradientUnits="userSpaceOnUse" xlink:href="#linearGradient57"/></defs><radialGradient id="radialGradient88" cx="0" cy="0" r=".773" fx="0" fy="0" gradientTransform="matrix(0.945877,0,0,1.05722,0.264368,0.249996)" gradientUnits="objectBoundingBox" spreadMethod="pad" xlink:href="#linearGradient168"/><linearGradient id="linearGradient89" x1="-.259" x2=".242" y1="-.11" y2="1.237" gradientTransform="matrix(1.72489,1.17189,-5.75163e-2,0.540671,0.503708,0.486073)" gradientUnits="objectBoundingBox" spreadMethod="pad" xlink:href="#linearGradient310"/><linearGradient id="linearGradient210" x1=".171" x2="-.094" y1="-.236" y2=".664" gradientTransform="matrix(1.07397,2.17355e-3,-3.16583e-4,0.931124,0.53185,0.277308)" gradientUnits="objectBoundingBox" spreadMethod="pad" xlink:href="#linearGradient458"/><linearGradient id="linearGradient215" x1=".098" x2="1.081" y1=".062" y2="1.016" gradientUnits="objectBoundingBox" spreadMethod="pad" xlink:href="#linearGradient232"/><linearGradient id="linearGradient231" x1=".043" x2=".901" y1=".102" y2="1.031" gradientUnits="objectBoundingBox" spreadMethod="pad" xlink:href="#linearGradient216"/><linearGradient id="linearGradient238" x1="-.268" x2=".25" y1="-.114" y2="1.28" gradientTransform="matrix(-1.66776,-1.248,5.90927e-2,-0.555388,0.492831,1.02592)" gradientUnits="objectBoundingBox" spreadMethod="pad" xlink:href="#linearGradient310"/><radialGradient id="radialGradient280" cx="0" cy="0" r=".773" fx="0" fy="0" gradientTransform="matrix(0.945877,-9.10109e-7,0,1.05722,0.264368,0.249996)" gradientUnits="objectBoundingBox" spreadMethod="pad" xlink:href="#linearGradient232"/><linearGradient id="linearGradient290" x1="0" x2="1.285" y1=".492" y2=".492" gradientTransform="translate(2.74928e-4,0)" gradientUnits="objectBoundingBox" spreadMethod="pad" xlink:href="#linearGradient216"/><linearGradient id="linearGradient305" x1="3.243" x2="3.048" y1=".609" y2=".828" gradientTransform="translate(-2.65767,-0.201237)" gradientUnits="objectBoundingBox" spreadMethod="pad" xlink:href="#linearGradient320"/><radialGradient id="radialGradient306" cx="0" cy="0" r=".438" fx="0" fy="0" gradientTransform="matrix(1.70941,0.956671,-5.32755e-2,0.55518,0.332018,0.387863)" gradientUnits="objectBoundingBox" spreadMethod="pad" xlink:href="#linearGradient310"/><radialGradient id="radialGradient317" cx="0" cy="0" r=".31" fx="0" fy="0" gradientTransform="matrix(1.72489,1.17189,-5.75163e-2,0.540669,0.503699,0.486073)" gradientUnits="objectBoundingBox" spreadMethod="pad" xlink:href="#linearGradient458"/><linearGradient id="linearGradient319" x1="-.029" x2="-.061" y1=".034" y2=".311" gradientTransform="matrix(1.07397,2.17354e-3,-3.16583e-4,0.931124,0.53185,0.277306)" gradientUnits="objectBoundingBox" spreadMethod="pad" xlink:href="#linearGradient314"/><linearGradient id="linearGradient735" x1=".255" x2="-.114" y1=".139" y2=".07" gradientTransform="matrix(1.72489,1.17189,-5.75163e-2,0.540671,0.503708,0.486073)" gradientUnits="objectBoundingBox" spreadMethod="pad" xlink:href="#linearGradient732"/></defs><g id="g830" transform="matrix(0.971088,0,0,0.971088,15.7896,7.02533)"><path style="font-size:12px;fill:url(#linearGradient215);fill-opacity:.70196096;stroke:#1c6671;stroke-width:9.25242996;stroke-linecap:round;stroke-linejoin:round;stroke-opacity:.98999999" id="path10" d="M -49.21,243.091 C -46.9287,238.079 -38.9781,233.065 -32.1615,233.824 L 173.669,267.357 C 189.611,256.808 212.948,243.966 237.003,247.181 L 271.976,250.84 L 316.171,257.383 C 341.971,263.24 362.36,275.405 364.498,299.613 L 364.227,591.258 L -50.8332,491.502 L -49.21,243.091 z" transform="matrix(0.296773,0,0,0.349857,36.2361,-65.7623)"/><g id="g822" transform="matrix(1,0,0.170856,0.992675,-24.2946,0.673683)"><path style="font-size:12px;fill:url(#radialGradient280);stroke:#1c6671;stroke-width:10.92080021;stroke-linecap:round;stroke-linejoin:round;stroke-opacity:.99215698" id="path279" d="M -36.067,269.069 L 449.267,273.434 L 430.545,310.731 L -57.8558,307.694 L -36.067,269.069 z" transform="matrix(0.249172,6.28572e-2,-3.06376e-2,0.230918,41.152,50.1286)"/><path style="font-size:12px;fill:#fff;fill-opacity:.69930103;stroke:#1c6671;stroke-width:9.25242996;stroke-linecap:round;stroke-linejoin:round;stroke-opacity:.99215698" id="path208" d="M -49.21,251.696 C -50.4531,239.201 -40.2031,227.28 -26.5727,228.549 L 168.873,263.916 L 168.286,299.924 L 253.046,316.79 L 253.93,278.879 L 343.038,291.687 C 354.248,294.903 361.401,301.559 364.498,316.818 L 364.227,591.258 L -50.8332,491.502 L -49.21,251.696 z" transform="matrix(0.281507,0,5.11449e-2,0.316454,6.24834,-37.742)"/><path style="font-size:12px;fill:url(#linearGradient238);fill-opacity:.69930103;stroke-width:8.96854973" id="path209" d="M -27.5759,232.64 L 161.416,266.223 L 162.857,303.665 L 255.075,321.926 L 257.994,284.305 L 339.658,295.159 C 350.192,300.105 358.021,305.051 359.09,316.919 L 359.479,402.175 L -45.8976,311.058 L -45.4017,248.362 C -45.92,242.481 -36.0719,234.675 -27.5759,232.64 z" transform="matrix(0.27975,-3.43893e-3,5.50495e-2,0.314571,5.23966,-37.0282)"/><path style="font-size:12px;fill:url(#linearGradient231);fill-opacity:.69930103;stroke-width:8.96854973" id="path230" d="M -56.9574,281.878 L 366.63,415.997 L 366.463,552.702 L -52.8614,415.802 L -56.9574,281.878 z" transform="matrix(0.267828,0,3.55344e-2,0.219866,19.8571,26.2107)"/><path style="font-size:12px;fill:url(#radialGradient88);stroke:#0c5d7d;stroke-width:4.03585005;stroke-opacity:.98999999" id="path9" d="M -42.4604,274.763 L 433.35,273.812 L 434.557,303.708 L -42.4604,305.48 L -42.4604,274.763 z" transform="matrix(0.249172,6.28572e-2,-3.06376e-2,0.230918,33.2275,27.7579)"/><path style="font-size:12px;fill:url(#linearGradient290);fill-opacity:.69930103;stroke-width:8.96854973" id="path281" d="M -65.8789,283.954 L -30.3752,278.951 L -35.0029,644.067 L -70.7043,660.824 L -65.8789,283.954 z" transform="matrix(9.72412e-2,0,3.21946e-2,0.177571,125.938,27.2245)"/><path style="font-size:12px;fill:url(#linearGradient89);fill-opacity:.86666697;stroke-width:8.96854973" id="path313" d="M -54.9317,113.669 L 347.321,224.163 L 346.804,333.491 L -55.046,228.132 L -54.9317,113.669 z" transform="matrix(-0.283826,2.27271e-4,-4.22751e-2,-0.260188,121.817,147.531)"/></g></g></svg>