<svg xmlns="http://www.w3.org/2000/svg" xmlns:svg="http://www.w3.org/2000/svg" id="svg2" width="22" height="22" version="1.1"><metadata id="metadata8"/><path style="fill:#c3c8e1;stroke:#000;stroke-width:1px;stroke-linecap:butt;stroke-linejoin:miter;stroke-opacity:1;fill-opacity:1" id="path2983" d="m 1,14 0,5 2,2 16,0 2,-2 0,-5 -4,0 L 17,1 5,1 5,14 z"/><path style="fill:none;stroke:#000;stroke-width:1px;stroke-linecap:butt;stroke-linejoin:miter;stroke-opacity:1" id="path2993" d="m 5,14 12,0"/><path style="fill:none;stroke:#000;stroke-width:1px;stroke-linecap:butt;stroke-linejoin:miter;stroke-opacity:1" id="path2995" d="M 1,14 5,10"/><path style="fill:none;stroke:#000;stroke-width:1px;stroke-linecap:butt;stroke-linejoin:miter;stroke-opacity:1" id="path2997" d="M 21,14 17,10"/><path style="fill:#101320;fill-opacity:1;fill-rule:nonzero;stroke:#112ff0;stroke-width:.06763136;stroke-linecap:round;stroke-linejoin:round;stroke-miterlimit:4;stroke-opacity:1;stroke-dasharray:none" id="path3817" d="m 3.3691047,12.368826 c 0.6020273,-0.602437 1.1000062,-1.095339 1.1066196,-1.095339 0.00661,0 0.012024,0.492902 0.012024,1.095339 l 0,1.095339 -1.1066196,0 -1.1066195,0 1.094595,-1.095339 z"/><path style="fill:#191b25;fill-opacity:1;fill-rule:nonzero;stroke:#112ff0;stroke-width:.06763136;stroke-linecap:round;stroke-linejoin:round;stroke-miterlimit:4;stroke-opacity:1;stroke-dasharray:none" id="path3819" d="m 17.538596,12.380858 0,-1.083306 1.072034,1.071274 c 0.589618,0.589201 1.072034,1.076688 1.072034,1.083306 0,0.0066 -0.482416,0.01203 -1.072034,0.01203 l -1.072034,0 0,-1.083307 z"/></svg>