<svg xmlns="http://www.w3.org/2000/svg" xmlns:svg="http://www.w3.org/2000/svg" id="svg2" width="20" height="24" version="1.1"><metadata id="metadata8"/><g style="font-size:20px;font-style:normal;font-variant:normal;font-weight:400;font-stretch:normal;text-align:start;line-height:125%;writing-mode:lr-tb;text-anchor:start;fill:#fff;fill-opacity:1;stroke:none;font-family:MScore1;-inkscape-font-specification:MScore1" id="text2816" transform="matrix(1.4,0,0,1.4,-3.9055593,-4.6665759)"><path style="fill:#fff;fill-opacity:1" id="path2814" d="m 8.5738984,13.86644 -0.02,1.32 0,0.22 c -6e-7,0.493334 0.026666,0.933334 0.08,1.32 0.3866656,-0.333333 0.6866653,-0.606666 0.9,-0.82 0.2266649,-0.213332 0.439998,-0.499999 0.6399996,-0.86 0.213331,-0.373331 0.319998,-0.739998 0.32,-1.1 -2e-6,-0.359997 -0.08,-0.67333 -0.24,-0.94 -0.146668,-0.266663 -0.3533348,-0.399996 -0.6199996,-0.4 -0.306668,4e-6 -0.5600011,0.126671 -0.76,0.38 -0.1866674,0.240003 -0.2866673,0.533337 -0.3,0.88 m -0.84,3.58 -0.24,-11.9000005 c 0.1733337,-0.1066549 0.3533335,-0.1599882 0.54,-0.16 0.1866664,1.18e-5 0.3666663,0.053345 0.54,0.16 l -0.14,6.9000005 c 0.5333324,-0.453329 1.1399984,-0.679995 1.8199996,-0.68 0.506664,5e-6 0.926664,0.206671 1.26,0.62 0.346663,0.400004 0.519996,0.873337 0.52,1.42 -4e-6,0.373336 -0.10667,0.733335 -0.32,1.08 -0.213336,0.333335 -0.440003,0.600001 -0.68,0.8 -0.226669,0.200001 -0.560002,0.460001 -1,0.78 -0.4266679,0.32 -0.7400009,0.56 -0.9399996,0.72 -0.066668,0.05333 -0.1533343,0.153333 -0.26,0.3 -0.1066674,0.146666 -0.213334,0.259999 -0.32,0.34 -0.093334,0.08 -0.2000003,0.119999 -0.32,0.12 -0.1333334,-10e-7 -0.24,-0.04667 -0.32,-0.14 -0.093333,-0.09333 -0.1399997,-0.213334 -0.14,-0.36"/></g></svg>