<svg xmlns="http://www.w3.org/2000/svg" xmlns:svg="http://www.w3.org/2000/svg" id="svg2" width="18" height="18" version="1.0"><path style="fill:#c3c8e1;fill-opacity:1;stroke:#000;stroke-width:.69233489;stroke-miterlimit:4;stroke-dasharray:none;stroke-opacity:1" id="path1877" d="M 18.095238 8.7380953 A 9.0476189 8.7857141 0 1 1 0,8.7380953 A 9.0476189 8.7857141 0 1 1 18.095238 8.7380953 z" transform="matrix(0.951892,4.874094e-3,0,0.972139,0.411454,0.413643)"/><path style="fill:none;fill-opacity:.75;fill-rule:evenodd;stroke:#000;stroke-width:1px;stroke-linecap:butt;stroke-linejoin:miter;stroke-opacity:1" id="path2768" d="M 7,17 L 7,15 L 11,15 L 11,17"/><path style="fill:#bbd4c9;fill-opacity:1;stroke:#000;stroke-width:.89999998;stroke-miterlimit:4;stroke-dasharray:none;stroke-opacity:1" id="path2770" d="M 9.1428576 3.4523809 A 0.5 0.45238096 0 1 1 8.1428576,3.4523809 A 0.5 0.45238096 0 1 1 9.1428576 3.4523809 z" transform="translate(0.307142,-0.354762)"/><path style="fill:#bbd4c9;fill-opacity:1;stroke:#000;stroke-width:.89999998;stroke-miterlimit:4;stroke-dasharray:none;stroke-opacity:1" id="path2772" d="M 9.1428576 3.4523809 A 0.5 0.45238096 0 1 1 8.1428576,3.4523809 A 0.5 0.45238096 0 1 1 9.1428576 3.4523809 z" transform="translate(6.407142,5.45)"/><path style="fill:#bbd4c9;fill-opacity:1;stroke:#000;stroke-width:.89999998;stroke-miterlimit:4;stroke-dasharray:none;stroke-opacity:1" id="path2774" d="M 9.1428576 3.4523809 A 0.5 0.45238096 0 1 1 8.1428576,3.4523809 A 0.5 0.45238096 0 1 1 9.1428576 3.4523809 z" transform="translate(-5.592858,5.45)"/><path style="fill:#bbd4c9;fill-opacity:1;stroke:#000;stroke-width:.89999998;stroke-miterlimit:4;stroke-dasharray:none;stroke-opacity:1" id="path2776" d="M 9.1428576 3.4523809 A 0.5 0.45238096 0 1 1 8.1428576,3.4523809 A 0.5 0.45238096 0 1 1 9.1428576 3.4523809 z" transform="translate(6.407142,5.45)"/><path style="fill:#bbd4c9;fill-opacity:1;stroke:#000;stroke-width:.89999998;stroke-miterlimit:4;stroke-dasharray:none;stroke-opacity:1" id="path2778" d="M 9.1428576 3.4523809 A 0.5 0.45238096 0 1 1 8.1428576,3.4523809 A 0.5 0.45238096 0 1 1 9.1428576 3.4523809 z" transform="translate(-3.692858,1.645238)"/><path style="fill:#bbd4c9;fill-opacity:1;stroke:#000;stroke-width:.89999998;stroke-miterlimit:4;stroke-dasharray:none;stroke-opacity:1" id="path2780" d="M 9.1428576 3.4523809 A 0.5 0.45238096 0 1 1 8.1428576,3.4523809 A 0.5 0.45238096 0 1 1 9.1428576 3.4523809 z" transform="translate(5.307142,1.645238)"/></svg>