<svg xmlns="http://www.w3.org/2000/svg" xmlns:svg="http://www.w3.org/2000/svg" id="svg2" width="20" height="24" version="1.1"><metadata id="metadata8"/><g style="font-size:20px;font-style:normal;font-variant:normal;font-weight:400;font-stretch:normal;text-align:start;line-height:125%;writing-mode:lr-tb;text-anchor:start;fill:#fff;fill-opacity:1;stroke:none;font-family:MScore1;-inkscape-font-specification:MScore1" id="text2816" transform="matrix(1.4,0,0,1.4,-3.4097629,-5.976271)"><path style="fill:#fff;fill-opacity:1" id="path2814" d="m 7.4671191,5.1525421 c 0.1866666,-0.093323 0.3599998,-0.1399898 0.52,-0.14 0.1466661,1.02e-5 0.3133326,0.046677 0.5,0.14 l -0.06,3.66 2.1199999,-0.4 0.06,0 c 0.239997,6.8e-6 0.359997,0.11334 0.36,0.34 l 0.14,11.3999999 c -0.18667,0.09333 -0.353336,0.139995 -0.5,0.14 -0.146669,-5e-6 -0.313336,-0.04667 -0.5,-0.14 l 0.06,-3.66 -2.1199999,0.4 -0.06,0 c -0.2400002,-2e-6 -0.36,-0.113335 -0.36,-0.34 l -0.16,-11.3999999 m 2.7199999,9.3999999 0.06,-4.14 -1.8399999,0.34 -0.06,4.14 1.8399999,-0.34"/></g></svg>