<svg xmlns="http://www.w3.org/2000/svg" xmlns:svg="http://www.w3.org/2000/svg" id="svg2" width="20" height="24" version="1.1"><metadata id="metadata8"/><g style="font-size:20px;font-style:normal;font-variant:normal;font-weight:400;font-stretch:normal;text-align:start;line-height:125%;writing-mode:lr-tb;text-anchor:start;fill:#000;fill-opacity:1;stroke:none;font-family:MScore1;-inkscape-font-specification:MScore1" id="text2816"><path id="path2815" d="m 10.811526,19.452542 c -0.213339,-0.226665 -0.320005,-0.493331 -0.32,-0.8 -5e-6,-0.306664 0.106661,-0.566663 0.32,-0.78 0.226661,-0.226663 0.493327,-0.339996 0.8,-0.34 0.30666,4e-6 0.56666,0.113337 0.78,0.34 0.226659,0.213337 0.339992,0.473336 0.34,0.78 -8e-6,0.306669 -0.113341,0.573335 -0.34,0.8 -0.21334,0.213335 -0.47334,0.320001 -0.78,0.32 -0.306673,10e-7 -0.573339,-0.106665 -0.8,-0.32 m -5.0000003,0 c -0.2133335,-0.226665 -0.32,-0.493331 -0.32,-0.8 0,-0.306664 0.1066665,-0.566663 0.32,-0.78 0.2266661,-0.226663 0.4933325,-0.339996 0.8,-0.34 0.3066652,4e-6 0.5666649,0.113337 0.78,0.34 0.2266645,0.213337 0.3399977,0.473336 0.34,0.78 -2.3e-6,0.306669 -0.1133355,0.573335 -0.34,0.8 -0.2133351,0.213335 -0.4733348,0.320001 -0.78,0.32 -0.3066675,10e-7 -0.5733339,-0.106665 -0.8,-0.32"/></g></svg>