<svg xmlns="http://www.w3.org/2000/svg" xmlns:svg="http://www.w3.org/2000/svg" id="svg34224" width="128" height="128" version="1.0" viewBox="-1 -200 1000 1000"><metadata id="metadata34233"/><path style="fill:none;stroke:#000;stroke-width:1px;stroke-linecap:butt;stroke-linejoin:miter;stroke-opacity:1" id="path2984" d="m 10,23 105,0" transform="matrix(7.8125,0,0,7.8125,-1,-200)"/><path style="fill:none;stroke:#000;stroke-width:1px;stroke-linecap:butt;stroke-linejoin:miter;stroke-opacity:1" id="path2986" d="m 10,38 105,0" transform="matrix(7.8125,0,0,7.8125,-1,-200)"/><path style="fill:none;stroke:#000;stroke-width:1px;stroke-linecap:butt;stroke-linejoin:miter;stroke-opacity:1" id="path2988" d="m 10,53 105,0" transform="matrix(7.8125,0,0,7.8125,-1,-200)"/><path style="fill:none;stroke:#000;stroke-width:1px;stroke-linecap:butt;stroke-linejoin:miter;stroke-opacity:1" id="path2990" d="m 10,68 105,0" transform="matrix(7.8125,0,0,7.8125,-1,-200)"/><path style="fill:none;stroke:#000;stroke-width:1px;stroke-linecap:butt;stroke-linejoin:miter;stroke-opacity:1" id="path2992" d="m 10,83 105,0" transform="matrix(7.8125,0,0,7.8125,-1,-200)"/><path style="fill:none;stroke:#000;stroke-width:1px;stroke-linecap:butt;stroke-linejoin:miter;stroke-opacity:1" id="path2994" d="m 10,98 105,0" transform="matrix(7.8125,0,0,7.8125,-1,-200)"/><path style="fill:none;stroke:#000;stroke-width:1.3;stroke-linecap:butt;stroke-linejoin:miter;stroke-opacity:1;stroke-miterlimit:4;stroke-dasharray:none" id="path2996" d="m 15,23 0,75" transform="matrix(7.8125,0,0,7.8125,-1,-200)"/><path style="fill:none;stroke:#000;stroke-width:1.3;stroke-linecap:butt;stroke-linejoin:miter;stroke-opacity:1;stroke-miterlimit:4;stroke-dasharray:none" id="path2998" d="m 110,23 0,75" transform="matrix(7.8125,0,0,7.8125,-1,-200)"/><rect style="fill:none;stroke:#080a12;stroke-width:30.59535027;stroke-linecap:round;stroke-linejoin:miter;stroke-miterlimit:4;stroke-opacity:.99431817;stroke-dasharray:none" id="rect3000" width="163.527" height="28.621" x="389.625" y="107.316"/></svg>