<svg xmlns="http://www.w3.org/2000/svg" xmlns:svg="http://www.w3.org/2000/svg" id="svg2" width="20" height="24" version="1.1"><metadata id="metadata8"/><g style="font-size:20px;font-style:normal;font-variant:normal;font-weight:400;font-stretch:normal;text-align:start;line-height:125%;writing-mode:lr-tb;text-anchor:start;fill:#000;fill-opacity:1;stroke:none;font-family:MScore1;-inkscape-font-specification:MScore1" id="text2816"><path id="path2814" d="m 11.751526,2.3925421 c 0.199993,0.013352 0.30666,0.1200187 0.32,0.32 l 0,1.96 c 0.213326,0.6400159 0.546659,1.3666818 1,2.18 0.466658,0.8133468 0.899991,1.5266795 1.3,2.14 0.413324,0.6133449 0.773323,1.3333439 1.08,2.1599999 0.319989,0.813343 0.479989,1.600009 0.48,2.36 -1.1e-5,1.360006 -0.280011,2.760005 -0.84,4.2 -0.106677,0.160003 -0.233343,0.240003 -0.38,0.24 -0.133343,3e-6 -0.253343,-0.05333 -0.36,-0.16 -0.09334,-0.106663 -0.126676,-0.23333 -0.1,-0.38 0.55999,-1.333328 0.83999,-2.633327 0.84,-3.9 -10e-6,-0.866658 -0.28001,-1.739991 -0.84,-2.62 -0.546675,-0.879989 -1.273341,-1.8199878 -2.18,-2.8199999 l 0,9.6399999 c -7e-6,0.893336 -0.466673,1.733335 -1.4,2.52 -0.9333379,0.786667 -1.9333369,1.18 -3.0000003,1.18 -0.6533349,0 -1.180001,-0.166667 -1.58,-0.5 -0.4000002,-0.333333 -0.6,-0.773332 -0.6,-1.32 0,-0.893331 0.4666662,-1.73333 1.4,-2.52 0.933331,-0.786662 1.93333,-1.179995 3,-1.18 0.6133283,5e-6 1.1266613,0.153339 1.5400003,0.46 l 0,-13.6399999 c 0.01333,-0.1999813 0.119994,-0.3066479 0.32,-0.32"/></g></svg>