<svg xmlns="http://www.w3.org/2000/svg" xmlns:svg="http://www.w3.org/2000/svg" id="svg2" width="20" height="24" version="1.1"><metadata id="metadata8"/><g style="font-size:20px;font-style:normal;font-variant:normal;font-weight:400;font-stretch:normal;text-align:start;line-height:125%;writing-mode:lr-tb;text-anchor:start;fill:#fff;fill-opacity:1;stroke:none;font-family:MScore1;-inkscape-font-specification:MScore1" id="text2816" transform="translate(1.294365,-6.112279)"><path style="fill:#000;fill-opacity:1" id="path2815" d="m 12.071526,17.712542 c 0.139771,0.882334 -0.466673,1.733335 -1.4,2.52 -0.9333379,0.786667 -1.9333369,1.18 -3.0000003,1.18 -0.6533349,0 -1.180001,-0.166667 -1.58,-0.5 -0.4000002,-0.333333 -0.6,-0.773332 -0.6,-1.32 0,-0.893331 0.4666662,-1.73333 1.4,-2.52 0.933331,-0.786662 1.93333,-1.179995 3,-1.18 0.6133283,5e-6 1.1339253,0.110536 1.5400003,0.46 0.379756,0.326814 0.561611,0.865149 0.64,1.36 z"/></g><path style="fill:none;stroke:#000;stroke-width:1px;stroke-linecap:butt;stroke-linejoin:miter;stroke-opacity:1" id="path2986" d="m 10,2 0,7"/><path style="fill:none;stroke:#000;stroke-width:1px;stroke-linecap:butt;stroke-linejoin:miter;stroke-opacity:1" id="path2988" d="m 10,16 0,6"/><path style="fill:none;stroke:#000;stroke-width:1px;stroke-linecap:round;stroke-linejoin:round;stroke-opacity:1" id="path2994" d="m 7,4 3,-2 3,2"/><path style="fill:none;stroke:#000;stroke-width:1px;stroke-linecap:butt;stroke-linejoin:miter;stroke-opacity:1" id="path2996" d="M 13,20 10,22 7,20"/></svg>