<svg xmlns="http://www.w3.org/2000/svg" xmlns:xlink="http://www.w3.org/1999/xlink" id="svg49" width="128pt" height="128pt" viewBox="0 0 507.946 507.946" xml:space="preserve"><defs id="defs62"><radialGradient id="aigrd1" cx="218.94" cy="219.772" r="150.706" fx="218.94" fy="219.772" gradientUnits="userSpaceOnUse" style="stroke:#000;stroke-opacity:.986014;stroke-width:.981612"><stop style="stop-color:#73ffff;stroke:#000;stroke-opacity:.986014;stroke-width:.981612" id="stop53" offset="0"/><stop style="stop-color:#2ea6b9;stroke:#000;stroke-opacity:.986014;stroke-width:.981612" id="stop54" offset=".281"/><stop style="stop-color:#006b8b;stroke:#000;stroke-opacity:.986014;stroke-width:.981612" id="stop55" offset="1"/></radialGradient></defs><path id="path107" d="M255.689,0.39V0.156h5.634V0.39h-0.306c-0.889,0-1.387,0.312-1.494,0.936l-0.018,0.342v6.642c0,2.04,0.762,3.246,2.285,3.618c0.396,0.096,0.847,0.144,1.351,0.144c1.859,0,3.018-0.804,3.474-2.412c0.12-0.444,0.181-0.954,0.181-1.53V1.668 c0-0.852-0.505-1.278-1.513-1.278h-0.306V0.156h4.446V0.39h-0.307c-0.912,0-1.41,0.342-1.494,1.026l-0.018,0.252v6.804c0,2.088-0.828,3.45-2.484,4.086c-0.012,0-0.023,0.006-0.035,0.018c-0.469,0.168-0.996,0.276-1.584,0.324 c-0.181,0.012-0.366,0.018-0.559,0.018c-2.832,0-4.566-0.984-5.202-2.952c-0.156-0.492-0.233-1.056-0.233-1.692V1.668c0-0.852-0.505-1.278-1.513-1.278h-0.306z" transform="matrix(29.8155,0,0,29.8155,-7593.72,41.973)" style="font-size:12;stroke:#0c6772;stroke-opacity:.992157;stroke-width:.478131;fill:#a4c9ee;fill-opacity:.701961"/><rect style="font-size:12;fill:#0c6772;fill-opacity:.992157;fill-rule:evenodd;stroke:#0c6772;stroke-width:8.41811;stroke-opacity:.992157" id="rect2234" width="400.588" height="16.024" x="53.679" y="462.279" rx="0" ry="0"/></svg>