<svg xmlns="http://www.w3.org/2000/svg" xmlns:cc="http://web.resource.org/cc/" xmlns:svg="http://www.w3.org/2000/svg" xmlns:xlink="http://www.w3.org/1999/xlink" id="svg2270" width="14" height="14" version="1.0"><defs id="defs2272"><linearGradient id="linearGradient4128"><stop style="stop-color:#fff;stop-opacity:.78431374" id="stop4130" offset="0"/><stop style="stop-color:#fff;stop-opacity:.23529412" id="stop4132" offset="1"/></linearGradient><linearGradient id="linearGradient25826" x1="472.422" x2="461.392" y1="436.796" y2="424.951" gradientUnits="userSpaceOnUse" xlink:href="#linearGradient17794"/><linearGradient id="linearGradient17794"><stop style="stop-color:#c80000;stop-opacity:1" id="stop17796" offset="0"/><stop style="stop-color:#ffa0a0;stop-opacity:1" id="stop17798" offset="1"/></linearGradient><linearGradient id="linearGradient24732" x1="472.422" x2="461.392" y1="436.796" y2="424.951" gradientUnits="userSpaceOnUse" xlink:href="#linearGradient17794"/><linearGradient id="linearGradient2438" x1="472.422" x2="461.392" y1="436.796" y2="424.951" gradientUnits="userSpaceOnUse" xlink:href="#linearGradient17794"/><linearGradient id="linearGradient4134" x1="472.351" x2="472.351" y1="519.114" y2="521.005" gradientTransform="matrix(1,0,0,0.9687523,10.283691,16.9106)" gradientUnits="userSpaceOnUse" xlink:href="#linearGradient4128"/><linearGradient id="linearGradient4138" x1="472.351" x2="472.351" y1="519.114" y2="521.005" gradientTransform="matrix(1,0,0,1.0000093,10.421461,10.71221)" gradientUnits="userSpaceOnUse" xlink:href="#linearGradient4128"/><linearGradient id="linearGradient4142" x1="472.351" x2="472.351" y1="519.114" y2="521.005" gradientTransform="matrix(1,0,0,0.6666648,10.342666,173.98441)" gradientUnits="userSpaceOnUse" xlink:href="#linearGradient4128"/><linearGradient id="linearGradient4146" x1="472.351" x2="472.351" y1="519.114" y2="521.005" gradientTransform="matrix(1,0,0,0.6666648,10.303108,184.09099)" gradientUnits="userSpaceOnUse" xlink:href="#linearGradient4128"/><linearGradient id="linearGradient4156" x1="11" x2="11" y1="10" y2="11" gradientUnits="userSpaceOnUse" xlink:href="#linearGradient4128"/><linearGradient id="linearGradient4159" x1="5.953" x2="5.859" y1="6.609" y2="9.578" gradientTransform="matrix(1.2608351,0,0,1.2608351,475.7834,516.59183)" gradientUnits="userSpaceOnUse" xlink:href="#linearGradient4128"/><linearGradient id="linearGradient4169" x1="10.968" x2="11.025" y1="9.689" y2="11.147" gradientUnits="userSpaceOnUse" xlink:href="#linearGradient4128"/><linearGradient id="linearGradient4173" x1="10.946" x2="10.981" y1="9.914" y2="10.609" gradientTransform="matrix(1.2661544,0,0,1.2608351,469.23729,510.59508)" gradientUnits="userSpaceOnUse" xlink:href="#linearGradient4128"/></defs><metadata id="metadata2275"/><g id="layer1"><g id="g25843" transform="matrix(0.7931251,0,0,0.7931251,-372.13374,-408.22195)"><path id="path2442" d="M 481.17723,524.15684 C 481.17723,524.15684 482.11277,524.68766 483.0584,524.68766 C 484.00403,524.68766 484.95974,524.15684 484.95974,524.15684 L 483.4493,526.03249 L 483.4493,527.83201 L 484.8944,528.56151 L 484.95974,531.09144 L 481.17723,531.09144 L 481.16963,528.69627 L 482.71594,527.80266 L 482.72456,526.04216 L 481.17723,524.15684 z" style="fill:#7f7f8c;fill-opacity:1;fill-rule:evenodd;stroke:none;stroke-width:1px;stroke-linecap:butt;stroke-linejoin:miter;stroke-opacity:1"/><path id="path2444" d="M 481.17723,521.00476 L 481.17723,523.52643 L 482.43807,526.0481 L 481.17723,528.56977 L 481.17723,531.72186 L 484.95974,531.72186 L 484.95974,528.56977 L 483.6989,526.0481 L 484.95974,523.52643 L 484.95974,521.00476 L 481.17723,521.00476 z" style="opacity:.2;fill:#7f7f7f;fill-opacity:1;fill-rule:evenodd;stroke:none;stroke-width:1px;stroke-linecap:butt;stroke-linejoin:miter;stroke-opacity:1"/><path style="fill:#000;fill-opacity:1;fill-rule:evenodd;stroke:none;stroke-width:1px;stroke-linecap:butt;stroke-linejoin:miter;stroke-opacity:1" id="path2174" d="M 480.54682,520.37434 L 480.54681,523.52643 L 481.80765,526.0481 L 480.54681,528.56977 L 480.54682,531.72185 L 485.59016,531.72185 L 485.59015,528.56977 L 484.32932,526.0481 L 485.59015,523.52643 L 485.59016,520.37434 L 480.54682,520.37434 z M 481.80766,521.63517 L 484.32932,521.63517 L 484.32932,523.52643 L 483.46249,526.0481 L 484.32932,528.56977 L 484.32932,530.46102 L 481.80766,530.46102 L 481.80765,528.56977 L 482.72372,526.0481 L 481.80765,523.52643 L 481.80766,521.63517 z"/><rect style="opacity:1;fill:#7f2aff;fill-opacity:1;stroke:none;stroke-width:1;stroke-miterlimit:4;stroke-dasharray:none;stroke-opacity:1" id="rect2172" width="7.565" height="2.522" x="479.286" y="519.744" ry="1.261"/><rect style="opacity:1;fill:#60f;fill-opacity:1;stroke:none;stroke-width:1;stroke-miterlimit:4;stroke-dasharray:none;stroke-opacity:1" id="rect2170" width="7.565" height="2.522" x="479.286" y="529.831" ry="1.261"/><rect style="opacity:1;fill:url(#linearGradient4142);fill-opacity:1;stroke:none;stroke-width:1;stroke-miterlimit:4;stroke-dasharray:none;stroke-opacity:1" id="rect4140" width="5.674" height="1.261" x="480.173" y="520.059" ry=".63"/><rect style="opacity:1;fill:url(#linearGradient4146);fill-opacity:1;stroke:none;stroke-width:1;stroke-miterlimit:4;stroke-dasharray:none;stroke-opacity:1" id="rect4144" width="5.674" height="1.261" x="480.133" y="530.166" ry=".63"/><path style="fill:url(#linearGradient4169);fill-rule:evenodd;stroke:none;stroke-width:1px;stroke-linecap:butt;stroke-linejoin:miter;stroke-opacity:1;fill-opacity:1" id="path4161" d="M 11.007811,9.9179701 C 10.386665,9.9257826 9.6414144,10.484263 9.5594939,10.992187 C 9.5017174,11.350414 12.494284,11.43273 12.441847,10.914063 C 12.40754,10.574731 11.628908,9.9101582 11.007811,9.9179701 z" transform="matrix(1.2608351,0,0,1.2608351,469.1993,514.70058)"/></g></g></svg>