<svg xmlns="http://www.w3.org/2000/svg" xmlns:svg="http://www.w3.org/2000/svg" id="svg49" width="128pt" height="128pt" viewBox="0 0 507.946 507.946" xml:space="preserve"><metadata id="metadata16"/><defs id="defs62"><radialGradient id="aigrd1" cx="218.94" cy="219.772" r="150.706" fx="218.94" fy="219.772" gradientUnits="userSpaceOnUse" style="stroke:#000;stroke-opacity:.986014;stroke-width:.981612"><stop style="stop-color:#73ffff;stroke:#000;stroke-opacity:.986014;stroke-width:.981612" id="stop53" offset="0"/><stop style="stop-color:#2ea6b9;stroke:#000;stroke-opacity:.986014;stroke-width:.981612" id="stop54" offset=".281"/><stop style="stop-color:#006b8b;stroke:#000;stroke-opacity:.986014;stroke-width:.981612" id="stop55" offset="1"/></radialGradient></defs><rect style="font-size:12px;fill:#0c6772;fill-opacity:.99215698;fill-rule:evenodd;stroke:#0c6772;stroke-width:8.41810989;stroke-opacity:.99215698" id="rect2234" width="400.588" height="16.024" x="59.194" y="232.224" rx="0" ry="0"/><rect style="font-size:12px;fill:#0c6772;fill-opacity:.99215698;fill-rule:evenodd;stroke:#0c6772;stroke-width:8.41810989;stroke-opacity:.99215698" id="rect2391" width="400.588" height="16.024" x="56.949" y="183.831" rx="0" ry="0"/><rect style="font-size:12px;fill:#0c6772;fill-opacity:.99215698;fill-rule:evenodd;stroke:#0c6772;stroke-width:8.41810989;stroke-opacity:.99215698" id="rect2393" width="400.588" height="16.024" x="58.039" y="291.742" rx="0" ry="0"/><path style="fill:#0e6873;fill-opacity:1;fill-rule:nonzero;stroke:#000;stroke-width:5.00009346;stroke-linecap:round;stroke-linejoin:round;stroke-miterlimit:4;stroke-dasharray:none;stroke-opacity:.91000001" id="path2395" d="M 256.15303,268.68817 A 9.8101158,9.2651091 0 1 1 236.53279,268.68817 A 9.8101158,9.2651091 0 1 1 256.15303,268.68817 z" transform="translate(-1.0900128,83.930991)"/><path style="fill:#0e6873;fill-opacity:1;fill-rule:nonzero;stroke:#000;stroke-width:5.00009346;stroke-linecap:round;stroke-linejoin:round;stroke-miterlimit:4;stroke-dasharray:none;stroke-opacity:.91000001" id="path3167" d="M 256.15303,268.68817 A 9.8101158,9.2651091 0 1 1 236.53279,268.68817 A 9.8101158,9.2651091 0 1 1 256.15303,268.68817 z" transform="translate(-6.4892706e-7,136.79662)"/><path style="fill:#0e6873;fill-opacity:1;fill-rule:nonzero;stroke:#000;stroke-width:5.00009346;stroke-linecap:round;stroke-linejoin:round;stroke-miterlimit:4;stroke-dasharray:none;stroke-opacity:.91000001" id="path3169" d="M 256.15303,268.68817 A 9.8101158,9.2651091 0 1 1 236.53279,268.68817 A 9.8101158,9.2651091 0 1 1 256.15303,268.68817 z" transform="translate(1.0900122,190.20725)"/><path style="fill:#0e6873;fill-opacity:1;fill-rule:nonzero;stroke:#000;stroke-width:5.00009346;stroke-linecap:round;stroke-linejoin:round;stroke-miterlimit:4;stroke-dasharray:none;stroke-opacity:.91000001" id="path2389" d="M 256.15303,268.68817 A 9.8101158,9.2651091 0 1 1 236.53279,268.68817 A 9.8101158,9.2651091 0 1 1 256.15303,268.68817 z" transform="translate(-3.2700393,-236.8053)"/><path style="fill:#0e6873;fill-opacity:1;fill-rule:nonzero;stroke:#000;stroke-width:5.00009346;stroke-linecap:round;stroke-linejoin:round;stroke-miterlimit:4;stroke-dasharray:none;stroke-opacity:.91000001" id="path2391" d="M 256.15303,268.68817 A 9.8101158,9.2651091 0 1 1 236.53279,268.68817 A 9.8101158,9.2651091 0 1 1 256.15303,268.68817 z" transform="translate(-2.1800273,-183.93967)"/><path style="fill:#0e6873;fill-opacity:1;fill-rule:nonzero;stroke:#000;stroke-width:5.00009346;stroke-linecap:round;stroke-linejoin:round;stroke-miterlimit:4;stroke-dasharray:none;stroke-opacity:.91000001" id="path2393" d="M 256.15303,268.68817 A 9.8101158,9.2651091 0 1 1 236.53279,268.68817 A 9.8101158,9.2651091 0 1 1 256.15303,268.68817 z" transform="translate(-1.0900143,-130.52904)"/></svg>